<svg width="98" height="78" viewBox="0 0 98 78" fill="none" xmlns="http://www.w3.org/2000/svg">
<path fill-rule="evenodd" clip-rule="evenodd" d="M87.13 10H97.8L89.53 41H78.87L69 78H0L20.8 0H89.8L87.13 10ZM69.8 21H66.3L63.08 33H66.58L69.8 21ZM70.48 19L71.3 16H67.62L66.8 19H70.48ZM83 10L84.6 4H23.87L5.21 74H65.93L74.73 41H50.53L58.8 10H83ZM77.86 33.28C78.84 33.28 79.76 33.08 80.63 32.68C82.3328 31.906 83.6872 30.5267 84.43 28.81C85.1184 27.2409 85.1686 25.4655 84.57 23.86C84.3052 23.1713 83.8959 22.5472 83.3699 22.0297C82.8438 21.5123 82.213 21.1134 81.52 20.86C80.73 20.5675 79.8923 20.4251 79.05 20.44C78.05 20.44 77.12 20.64 76.25 21.04C74.5565 21.8156 73.21 23.1906 72.47 24.9C71.7935 26.4758 71.747 28.251 72.34 29.86C72.6049 30.5459 73.0132 31.1674 73.5374 31.683C74.0616 32.1986 74.6898 32.5965 75.38 32.85C76.11 33.13 76.94 33.28 77.86 33.28V33.28ZM78.02 30.28C77.22 30.28 76.58 30.04 76.08 29.56C75.59 29.08 75.35 28.38 75.35 27.48C75.3758 26.5054 75.7161 25.5653 76.32 24.8C76.62 24.4 76.99 24.08 77.43 23.82C77.87 23.56 78.35 23.43 78.89 23.43C79.69 23.43 80.33 23.67 80.82 24.16C81.32 24.64 81.56 25.33 81.56 26.24C81.5313 27.214 81.1914 28.1533 80.59 28.92C80.29 29.31 79.91 29.63 79.48 29.89C79.04 30.16 78.55 30.29 78.02 30.29V30.28Z" fill="url(#paint0_linear)"/>
<path fill-rule="evenodd" clip-rule="evenodd" d="M34.032 16H49.008L40.432 48H60.848L57.392 60.8H22L34.032 16Z" fill="white"/>
<defs>
<linearGradient id="paint0_linear" x1="0" y1="0" x2="97.8" y2="0" gradientUnits="userSpaceOnUse">
<stop stop-color="#78D695"/>
<stop offset="1" stop-color="#43AC97"/>
</linearGradient>
</defs>
</svg>
