<svg width="330" height="78" viewBox="0 0 330 78" fill="none" xmlns="http://www.w3.org/2000/svg">
<path d="M33.94 16.2H48.92L40.34 48.2H60.76L57.3 61H21.91L33.94 16.2V16.2ZM72.15 61.77C69.6776 61.8514 67.2731 60.9529 65.46 59.27C63.69 57.61 62.81 55.27 62.81 52.23C62.81 48.52 64.17 45.57 66.91 43.37C69.63 41.17 73.47 40.07 78.42 40.07C81.07 40.07 83.72 40.46 86.36 41.22L86.49 40.84C86.57 40.63 86.64 40.36 86.68 40.04C86.72 39.72 86.74 39.41 86.74 39.11C86.74 36.85 84.95 35.72 81.37 35.72C79.75 35.72 78.05 35.86 76.28 36.14C74.51 36.41 73.03 36.79 71.83 37.26L69.91 27.4C71.83 26.8 74.07 26.34 76.63 26.02C79.19 25.7 81.75 25.54 84.31 25.54C90.11 25.54 94.39 26.57 97.14 28.62C98.4609 29.5589 99.5291 30.8098 100.25 32.2614C100.97 33.713 101.321 35.3202 101.27 36.94C101.27 38.51 101.06 40.14 100.63 41.8L95.51 61H80.98L81.94 57.48C80.5338 58.6877 79.0016 59.7404 77.37 60.62C75.7492 61.4217 73.9576 61.8164 72.15 61.77V61.77ZM79.19 53.51C80.34 53.51 81.46 52.98 82.55 51.91C83.6617 50.8001 84.447 49.406 84.82 47.88L85.21 46.41C84.3375 46.1489 83.4307 46.0207 82.52 46.03C80.69 46.03 79.28 46.44 78.3 47.27C77.31 48.1 76.82 49.27 76.82 50.76C76.82 51.66 77.05 52.34 77.5 52.81C77.94 53.28 78.5 53.51 79.2 53.51H79.19ZM108.76 26.06H123.29L121.43 33.1C122.898 30.8636 124.79 28.9371 127 27.43C129.183 26.018 131.767 25.3546 134.36 25.54L130.26 40.97H128.73C125.27 40.97 122.57 41.89 120.63 43.72C118.69 45.55 117.23 48.42 116.25 52.3L113.95 61H99.41L108.75 26.06H108.76ZM139.1 61.76C136.626 61.8468 134.217 60.9517 132.4 59.27C130.64 57.61 129.75 55.27 129.75 52.23C129.75 48.52 131.12 45.57 133.85 43.37C136.58 41.17 140.42 40.07 145.37 40.07C148.01 40.07 150.66 40.46 153.3 41.22L153.43 40.84C153.52 40.63 153.58 40.36 153.63 40.04C153.67 39.72 153.69 39.41 153.69 39.11C153.69 36.85 151.89 35.72 148.31 35.72C146.69 35.72 144.99 35.86 143.22 36.14C141.45 36.41 139.97 36.79 138.78 37.26L136.86 27.4C138.78 26.8 141.02 26.34 143.58 26.02C146.14 25.7 148.7 25.54 151.26 25.54C157.06 25.54 161.34 26.57 164.09 28.62C165.411 29.5589 166.479 30.8098 167.2 32.2614C167.92 33.713 168.271 35.3202 168.22 36.94C168.22 38.51 168 40.14 167.58 41.8L162.46 61H147.93L148.89 57.48C147.481 58.6883 145.945 59.741 144.31 60.62C142.692 61.4201 140.904 61.8147 139.1 61.77V61.76ZM146.14 53.51C147.29 53.51 148.41 52.98 149.5 51.91C150.612 50.8001 151.397 49.406 151.77 47.88L152.15 46.41C151.278 46.1489 150.371 46.0207 149.46 46.03C147.63 46.03 146.22 46.44 145.24 47.27C144.26 48.1 143.77 49.27 143.77 50.76C143.77 51.66 143.99 52.34 144.44 52.81C144.89 53.28 145.45 53.51 146.14 53.51ZM173.78 26.06H188.7L189.66 43.59L200.02 26.06H215.38L191.83 61.26H178.52L173.78 26.06V26.06ZM224.54 46.92C224.566 48.202 225.094 49.4227 226.01 50.32C226.91 51.17 228.16 51.59 229.78 51.59C230.98 51.59 232.14 51.36 233.28 50.89C234.544 50.3391 235.734 49.6301 236.82 48.78L243.54 56.14C241.54 57.93 239.31 59.33 236.86 60.33C234.4 61.33 231.64 61.83 228.56 61.83C226.127 61.8626 223.707 61.4839 221.4 60.71C219.406 60.0436 217.569 58.9787 216 57.58C214.525 56.2359 213.364 54.5834 212.6 52.74C211.791 50.7502 211.389 48.618 211.42 46.47C211.42 43.83 211.9 41.22 212.86 38.67C213.812 36.108 215.264 33.7611 217.132 31.766C219 29.771 221.246 28.1679 223.74 27.05C226.544 25.795 229.589 25.1703 232.66 25.22C235.52 25.22 237.93 25.67 239.9 26.57C241.677 27.3167 243.262 28.4556 244.537 29.9016C245.811 31.3477 246.742 33.0633 247.26 34.92C247.76 36.73 248.02 38.56 248.02 40.39C248.02 41.54 247.94 42.67 247.77 43.79C247.6 44.89 247.34 45.94 247 46.92H224.54V46.92ZM235.29 40.52C235.46 40.05 235.54 39.54 235.54 38.98C235.548 38.0228 235.194 37.0978 234.55 36.39C234.198 36.0102 233.766 35.7129 233.285 35.5193C232.805 35.3257 232.287 35.2406 231.77 35.27C230.66 35.27 229.5 35.66 228.28 36.42C227.06 37.19 226.11 38.56 225.43 40.52H235.29ZM258.78 14.28H273.3L260.76 61H246.23L258.78 14.28V14.28ZM267.42 54.28H273.25L271.45 61H265.57L267.42 54.28ZM288.55 27.91H293.48L284.58 61H279.66L288.56 27.91H288.55ZM291.62 15.24H297.26L295.78 20.68H290.15L291.62 15.24V15.24ZM310.19 61.77C308.08 61.797 305.985 61.4167 304.02 60.65C302.242 59.9751 300.628 58.9309 299.284 57.5864C297.939 56.2419 296.895 54.6276 296.22 52.85C295.496 50.9575 295.133 48.9461 295.15 46.92C295.15 44.36 295.67 41.89 296.72 39.5C298.748 34.7822 302.454 30.984 307.12 28.84C309.466 27.7527 312.024 27.1961 314.61 27.21C316.87 27.21 318.93 27.58 320.78 28.33C322.558 28.9964 324.175 30.0302 325.525 31.3639C326.876 32.6976 327.931 34.3012 328.62 36.07C329.363 37.9546 329.736 39.9644 329.72 41.99C329.72 44.64 329.18 47.15 328.12 49.54C327.08 51.8832 325.623 54.018 323.82 55.84C322.037 57.6522 319.935 59.12 317.62 60.17C315.288 61.2338 312.753 61.7797 310.19 61.77V61.77ZM310.51 57.35C312.35 57.35 314.11 56.94 315.82 56.1C317.53 55.27 319.05 54.15 320.37 52.74C321.697 51.3216 322.758 49.6752 323.5 47.88C324.265 46.077 324.659 44.1385 324.66 42.18C324.66 38.81 323.7 36.2 321.78 34.34C319.86 32.49 317.36 31.56 314.28 31.56C312.37 31.56 310.55 32 308.85 32.87C307.15 33.75 305.65 34.89 304.37 36.3C303.075 37.7318 302.037 39.3758 301.3 41.16C300.54 42.9401 300.146 44.8546 300.14 46.79C300.14 50.16 301.1 52.77 303.02 54.6C304.94 56.43 307.44 57.35 310.52 57.35H310.51Z" fill="white"/>
<path d="M68.25 65.27C69.5579 65.6173 70.9069 65.7855 72.26 65.77L69 78H0L20.8 0H89.8L84.05 21.54C82.66 21.55 81.27 21.6 79.88 21.69L84.59 4H23.87L5.21 74H65.93L68.25 65.27V65.27Z" fill="url(#paint0_linear)"/>
<defs>
<linearGradient id="paint0_linear" x1="0" y1="0" x2="89.8" y2="0" gradientUnits="userSpaceOnUse">
<stop stop-color="#78D695"/>
<stop offset="1" stop-color="#43AC97"/>
</linearGradient>
</defs>
</svg>
